<svg width="14" height="12" viewBox="0 0 14 12" fill="none" xmlns="http://www.w3.org/2000/svg">
<path d="M13.45 4.104C13.0986 3.30556 12.5892 2.58016 11.95 1.968C11.3123 1.35436 10.5567 0.865326 9.725 0.528C8.86094 0.177 7.94531 0 7 0C6.05469 0 5.13906 0.177 4.275 0.528C3.4433 0.865326 2.68767 1.35436 2.05 1.968C1.41079 2.58016 0.901382 3.30556 0.55 4.104C0.184375 4.9335 0 5.8125 0 6.72C0 8.7105 0.910937 10.5855 2.49844 11.8665L2.525 11.8875C2.61563 11.9595 2.72969 12 2.84687 12H11.1547C11.2719 12 11.3859 11.9595 11.4766 11.8875L11.5031 11.8665C13.0891 10.5855 14 8.7105 14 6.72C14 5.8125 13.8141 4.9335 13.45 4.104ZM10.8969 10.86H3.10313C2.49937 10.3374 2.01682 9.69875 1.68681 8.98552C1.35679 8.2723 1.18667 7.50042 1.1875 6.72C1.1875 5.229 1.79219 3.828 2.89062 2.775C3.98906 1.7205 5.44844 1.14 7 1.14C8.55313 1.14 10.0125 1.7205 11.1094 2.775C12.2078 3.8295 12.8125 5.2305 12.8125 6.72C12.8125 8.304 12.1172 9.8025 10.8969 10.86ZM8.74219 4.6425C8.71869 4.62017 8.68697 4.60764 8.65391 4.60764C8.62084 4.60764 8.58912 4.62017 8.56563 4.6425L7.24531 5.91C6.95312 5.835 6.62969 5.907 6.4 6.1275C6.31865 6.20545 6.2541 6.29804 6.21007 6.39997C6.16603 6.50189 6.14336 6.61115 6.14336 6.7215C6.14336 6.83184 6.16603 6.94111 6.21007 7.04303C6.2541 7.14496 6.31865 7.23755 6.4 7.3155C6.4812 7.3936 6.57765 7.45556 6.68382 7.49784C6.78999 7.54011 6.90381 7.56187 7.01875 7.56187C7.13369 7.56187 7.24751 7.54011 7.35368 7.49784C7.45985 7.45556 7.5563 7.3936 7.6375 7.3155C7.74632 7.21135 7.82458 7.08146 7.86436 6.93897C7.90414 6.79648 7.90404 6.64644 7.86406 6.504L9.18437 5.2365C9.23281 5.19 9.23281 5.1135 9.18437 5.067L8.74219 4.6425ZM6.65625 3.12H7.34375C7.4125 3.12 7.46875 3.066 7.46875 3V1.8C7.46875 1.734 7.4125 1.68 7.34375 1.68H6.65625C6.5875 1.68 6.53125 1.734 6.53125 1.8V3C6.53125 3.066 6.5875 3.12 6.65625 3.12ZM10.7188 6.39V7.05C10.7188 7.116 10.775 7.17 10.8438 7.17H12.0938C12.1625 7.17 12.2188 7.116 12.2188 7.05V6.39C12.2188 6.324 12.1625 6.27 12.0938 6.27H10.8438C10.775 6.27 10.7188 6.324 10.7188 6.39ZM10.9172 3.432L10.4312 2.9655C10.4078 2.94317 10.376 2.93064 10.343 2.93064C10.3099 2.93064 10.2782 2.94317 10.2547 2.9655L9.37031 3.8145C9.34705 3.83705 9.334 3.86751 9.334 3.89925C9.334 3.93099 9.34705 3.96145 9.37031 3.984L9.85625 4.4505C9.90469 4.497 9.98438 4.497 10.0328 4.4505L10.9172 3.6015C10.9656 3.555 10.9656 3.4785 10.9172 3.432ZM3.75156 2.9655C3.72807 2.94317 3.69634 2.93064 3.66328 2.93064C3.63022 2.93064 3.59849 2.94317 3.575 2.9655L3.08906 3.432C3.0658 3.45455 3.05275 3.48501 3.05275 3.51675C3.05275 3.54849 3.0658 3.57895 3.08906 3.6015L3.97344 4.4505C4.02187 4.497 4.10156 4.497 4.15 4.4505L4.63594 3.984C4.68438 3.9375 4.68438 3.861 4.63594 3.8145L3.75156 2.9655ZM3.09375 6.27H1.84375C1.775 6.27 1.71875 6.324 1.71875 6.39V7.05C1.71875 7.116 1.775 7.17 1.84375 7.17H3.09375C3.1625 7.17 3.21875 7.116 3.21875 7.05V6.39C3.21875 6.324 3.1625 6.27 3.09375 6.27Z" fill="white"/>
</svg>
