<svg width="16" height="15" viewBox="0 0 16 15" fill="none" xmlns="http://www.w3.org/2000/svg">
<path d="M7.99986 8.07966C8.15053 8.07966 8.28864 8.02944 8.43304 7.88504L10.4734 5.92006C10.5738 5.81961 10.6303 5.70661 10.6303 5.55594C10.6303 5.27344 10.4043 5.06627 10.1281 5.06627C9.98368 5.06627 9.84556 5.12277 9.74512 5.23577L8.90388 6.12723L8.5272 6.57924L8.58998 5.63756V0.929129C8.58998 0.621512 8.32631 0.351562 7.99986 0.351562C7.67969 0.351562 7.41602 0.621512 7.41602 0.929129V5.63756L7.47879 6.58552L7.09584 6.12723L6.26088 5.23577C6.16044 5.12277 6.01604 5.06627 5.87165 5.06627C5.59542 5.06627 5.36942 5.27344 5.36942 5.55594C5.36942 5.70661 5.42592 5.81961 5.53265 5.92006L7.57296 7.88504C7.71736 8.02944 7.85547 8.07966 7.99986 8.07966ZM2.62598 14.4203H13.3675C14.7298 14.4203 15.4392 13.7172 15.4392 12.3737V8.68862C15.4392 8.02316 15.3576 7.66532 15.0562 7.27609L12.9845 4.61426C12.2312 3.64118 11.754 3.14523 10.6052 3.14523H9.7514V4.1748H10.6617C11.1011 4.1748 11.5343 4.53892 11.8231 4.90932L13.9701 7.73437C14.1836 8.01688 14.102 8.13616 13.7818 8.13616H9.84556C9.51911 8.13616 9.36844 8.36844 9.36844 8.61328V8.63839C9.36844 9.31641 8.8411 10.0384 7.99986 10.0384C7.15234 10.0384 6.625 9.31641 6.625 8.63839V8.61328C6.625 8.36844 6.48061 8.13616 6.14788 8.13616H2.21791C1.89146 8.13616 1.82241 7.99805 2.02958 7.73437L4.17662 4.90932C4.4654 4.53892 4.89858 4.1748 5.33803 4.1748H6.24833V3.14523H5.39453C4.24568 3.14523 3.76855 3.6349 3.01521 4.61426L0.937221 7.27609C0.64216 7.6716 0.560547 8.02316 0.560547 8.68862V12.3737C0.560547 13.7172 1.26995 14.4203 2.62598 14.4203ZM2.68876 13.1648C2.11119 13.1648 1.79729 12.8634 1.79729 12.2607V9.24107H5.55776C5.75865 10.3585 6.73172 11.1872 7.99986 11.1872C9.268 11.1872 10.2411 10.3585 10.442 9.24107H14.2024V12.2607C14.2024 12.8634 13.8823 13.1648 13.3047 13.1648H2.68876Z" fill="white"/>
</svg>
