<svg width="29" height="28" viewBox="0 0 29 28" fill="none" xmlns="http://www.w3.org/2000/svg">
<path d="M27.45 5.6035V1.12C27.45 0.5005 26.9495 0 26.33 0H2.67002C2.05052 0 1.55002 0.5005 1.55002 1.12V5.6035C0.965521 5.6385 0.500022 6.125 0.500022 6.72V11.3295C0.49778 12.1766 0.669315 13.0153 1.00402 13.7935C1.15452 14.1505 1.34002 14.4865 1.55002 14.805V26.88C1.55002 27.496 2.05052 28 2.67002 28H26.33C26.9495 28 27.45 27.4995 27.45 26.88V14.805C27.6633 14.4857 27.8461 14.147 27.996 13.7935C28.3285 13.013 28.5 12.1835 28.5 11.3295V6.72C28.5 6.125 28.0345 5.6385 27.45 5.6035ZM4.07002 2.52H24.93V5.6H4.07002V2.52ZM16.74 25.4835H12.26V21.84H16.74V25.4835ZM24.93 25.4835H18.98V20.72C18.98 20.1005 18.4795 19.6 17.86 19.6H11.14C10.5205 19.6 10.02 20.1005 10.02 20.72V25.4835H4.07002V17.0065C4.17152 17.0555 4.27652 17.1045 4.38502 17.1465C5.16552 17.4755 5.99502 17.64 6.84902 17.64C7.70302 17.64 8.52902 17.4755 9.31301 17.1465C9.79601 16.9435 10.251 16.6845 10.6675 16.373C10.6745 16.3695 10.6815 16.3695 10.6885 16.373C11.1063 16.6858 11.5613 16.9456 12.043 17.1465C12.8235 17.4755 13.653 17.64 14.507 17.64C15.361 17.64 16.187 17.4755 16.971 17.1465C17.454 16.9435 17.909 16.6845 18.3255 16.373C18.3325 16.3695 18.3395 16.3695 18.3465 16.373C18.7643 16.6858 19.2193 16.9456 19.701 17.1465C20.4815 17.4755 21.311 17.64 22.165 17.64C23.019 17.64 23.845 17.4755 24.629 17.1465C24.734 17.101 24.839 17.0555 24.944 17.0065V25.4835H24.93ZM25.98 11.3295C25.98 13.4225 24.265 15.12 22.1545 15.12C20.7265 15.12 19.4805 14.3465 18.8225 13.1985C18.721 13.0235 18.539 12.915 18.336 12.915H18.315C18.1155 12.915 17.93 13.0235 17.8285 13.1985C17.4927 13.7841 17.0079 14.2704 16.4232 14.6079C15.8386 14.9454 15.1751 15.1221 14.5 15.12C13.0755 15.12 11.833 14.35 11.175 13.2055C11.07 13.027 10.881 12.915 10.6745 12.915C10.468 12.915 10.2755 13.027 10.174 13.2055C9.83627 13.7889 9.3508 14.273 8.76647 14.609C8.18215 14.9451 7.5196 15.1214 6.84552 15.12C4.73502 15.12 3.02002 13.4225 3.02002 11.3295V8.13749C3.02002 8.12699 3.02702 8.11999 3.03752 8.11999H25.9625C25.973 8.11999 25.98 8.12699 25.98 8.13749V11.3295Z" fill="white"/>
</svg>
