<svg width="40" height="40" viewBox="0 0 40 40" fill="none" xmlns="http://www.w3.org/2000/svg">
<path d="M34.668 13.04H5.332C4.596 13.04 4 13.612 4 14.32V32.88C4 33.588 4.596 34.16 5.332 34.16H34.664C35.4 34.16 35.996 33.588 35.996 32.88V14.32C36 13.612 35.404 13.04 34.668 13.04ZM13.92 31.28H6.88V24.88H13.92V31.28ZM13.92 22.32H6.88V15.92H13.92V22.32ZM23.52 31.28H16.48V24.88H23.52V31.28ZM23.52 22.32H16.48V15.92H23.52V22.32ZM33.12 31.28H26.08V24.88H33.12V31.28ZM33.12 22.32H26.08V15.92H33.12V22.32ZM35.68 6H4.32C4.144 6 4 6.144 4 6.32V9.52C4 9.696 4.144 9.84 4.32 9.84H35.68C35.856 9.84 36 9.696 36 9.52V6.32C36 6.144 35.856 6 35.68 6Z" fill="white"/>
</svg>
