<svg width="28" height="26" viewBox="0 0 28 26" fill="none" xmlns="http://www.w3.org/2000/svg">
<path d="M27.7083 23.0417H2.625V0.291667C2.625 0.13125 2.49375 0 2.33333 0H0.291667C0.13125 0 0 0.13125 0 0.291667V25.375C0 25.5354 0.13125 25.6667 0.291667 25.6667H27.7083C27.8687 25.6667 28 25.5354 28 25.375V23.3333C28 23.1729 27.8687 23.0417 27.7083 23.0417ZM6.48229 17.4161C6.59531 17.5292 6.7776 17.5292 6.89427 17.4161L11.9365 12.3995L16.5885 17.0807C16.7016 17.1937 16.8875 17.1937 17.0005 17.0807L27.0411 7.04375C27.1542 6.93073 27.1542 6.74479 27.0411 6.63177L25.5974 5.18802C25.5426 5.13374 25.4685 5.10329 25.3914 5.10329C25.3143 5.10329 25.2402 5.13374 25.1854 5.18802L16.8 13.5698L12.1552 8.89583C12.1004 8.84155 12.0264 8.8111 11.9492 8.8111C11.8721 8.8111 11.798 8.84155 11.7432 8.89583L5.04219 15.5568C4.98791 15.6116 4.95746 15.6856 4.95746 15.7628C4.95746 15.8399 4.98791 15.9139 5.04219 15.9687L6.48229 17.4161Z" fill="white"/>
</svg>
