<svg width="29" height="29" viewBox="0 0 29 29" fill="none" xmlns="http://www.w3.org/2000/svg">
<path d="M13.2199 28.1544H15.7687C16.8108 28.1544 17.627 27.5015 17.8781 26.497L18.3803 24.2997L18.7068 24.1742L20.6278 25.367C21.5067 25.9194 22.5488 25.7688 23.2896 25.028L25.0474 23.2702C25.8008 22.5168 25.9263 21.4872 25.3739 20.6209L24.1811 18.6998L24.3066 18.3985L26.5039 17.8837C27.4958 17.6326 28.1487 16.8165 28.1487 15.7743V13.3009C28.1487 12.2587 27.5084 11.4426 26.5039 11.1915L24.3192 10.6641L24.1936 10.3377L25.3864 8.4292C25.9389 7.56285 25.8133 6.53327 25.06 5.76737L23.3022 4.00956C22.5739 3.26876 21.5318 3.13065 20.6529 3.67055L18.7319 4.8508L18.3803 4.72524L17.8781 2.51542C17.627 1.51095 16.8108 0.870605 15.7687 0.870605H13.2199C12.1652 0.870605 11.3491 1.51095 11.1105 2.51542L10.6083 4.72524L10.2567 4.8508L8.33566 3.67055C7.4442 3.13065 6.41462 3.26876 5.68638 4.00956L3.91602 5.76737C3.17522 6.53327 3.03711 7.56285 3.58956 8.4292L4.78237 10.3377L4.65681 10.6641L2.48465 11.1915C1.48019 11.4426 0.839844 12.2587 0.839844 13.3009V15.7743C0.839844 16.8165 1.49275 17.6326 2.48465 17.8837L4.68192 18.3985L4.79492 18.6998L3.60212 20.6209C3.04966 21.4872 3.18778 22.5168 3.92857 23.2702L5.69894 25.028C6.42718 25.7688 7.46931 25.9194 8.34821 25.367L10.2693 24.1742L10.6083 24.2997L11.1105 26.497C11.3491 27.5015 12.1652 28.1544 13.2199 28.1544ZM13.5463 25.8441C13.3329 25.8441 13.2199 25.7562 13.1948 25.5679L12.4414 22.4791C11.6504 22.2908 10.8845 21.9644 10.2693 21.5751L7.5572 23.245C7.39397 23.3455 7.2433 23.3329 7.09263 23.1823L5.77427 21.8639C5.6236 21.7258 5.6236 21.5751 5.72405 21.4119L7.39397 18.6998C7.04241 18.0972 6.71596 17.3438 6.52762 16.5528L3.42634 15.812C3.238 15.7869 3.13756 15.6739 3.13756 15.4604V13.6022C3.13756 13.3762 3.22545 13.2883 3.42634 13.2381L6.51507 12.5098C6.7034 11.6686 7.06752 10.8901 7.38142 10.3251L5.7115 7.63818C5.61105 7.4624 5.61105 7.31173 5.74916 7.16106L7.08008 5.85526C7.23075 5.71715 7.36886 5.69203 7.5572 5.80504L10.2441 7.44985C10.8092 7.09828 11.6504 6.74672 12.454 6.54583L13.1948 3.4571C13.2199 3.26876 13.3329 3.16832 13.5463 3.16832H15.4422C15.6557 3.16832 15.7561 3.25621 15.7938 3.4571L16.5472 6.55838C17.3633 6.75928 18.1041 7.09828 18.7319 7.44985L21.4188 5.80504C21.6071 5.70459 21.7453 5.71715 21.8959 5.86782L23.2268 7.17362C23.3775 7.31173 23.3775 7.4624 23.2645 7.63818L21.6071 10.3251C21.9085 10.8901 22.2852 11.6686 22.4735 12.5098L25.5622 13.2381C25.7631 13.2883 25.8384 13.3762 25.8384 13.6022V15.4604C25.8384 15.6739 25.7506 15.7869 25.5622 15.812L22.4609 16.5528C22.2726 17.3438 21.9336 18.1097 21.582 18.6998L23.252 21.3993C23.3524 21.5751 23.3524 21.7132 23.2017 21.8514L21.8834 23.1823C21.7327 23.3329 21.582 23.3455 21.4188 23.245L18.7193 21.5751C18.0915 21.9644 17.3758 22.2783 16.5472 22.4791L15.7938 25.5679C15.7561 25.7562 15.6557 25.8441 15.4422 25.8441H13.5463ZM14.5006 19.2774C17.1122 19.2774 19.2592 17.1304 19.2592 14.5062C19.2592 11.9072 17.1122 9.76011 14.5006 9.76011C11.8764 9.76011 9.7168 11.9072 9.7168 14.5062C9.7168 17.1304 11.8764 19.2774 14.5006 19.2774ZM14.5006 17.1053C13.0692 17.1053 11.9015 15.9376 11.9015 14.5062C11.9015 13.1 13.0818 11.9323 14.5006 11.9323C15.8943 11.9323 17.0619 13.1 17.0619 14.5062C17.0619 15.925 15.8943 17.1053 14.5006 17.1053Z" fill="white"/>
</svg>
